<svg xmlns="http://www.w3.org/2000/svg" viewBox="0 0 612 612"><defs><style>.cls-1{fill:#fff;}.cls-2{fill:#231816;}</style></defs><g id="Layer_2" data-name="Layer 2"><g id="Layer_1-2" data-name="Layer 1"><rect class="cls-1" width="612" height="612" rx="12"/><path class="cls-2" d="M207.23,318.71c-1.26,35.12-13.46,61.76-40.58,80.43-21.55,14.83-45.13,18.39-70,10.33-9.43-3.05-18.06-3.9-27.32.36-6.37,2.92-13.44,3-20.28,1-8-2.35-12.92-9-12.17-16.09.82-7.81,7.34-13.87,15.69-14.48a30.48,30.48,0,0,1,14.81,2.58c5,2.2,6.37,1.47,8-3.71,8-26.24,15.15-52.71,20.25-79.67,2.94-15.56,12.26-24,27.1-27.45a61.77,61.77,0,0,1,15.09-1.51c5.25.12,7,2.41,5.83,7.67a61.74,61.74,0,0,1-4.15,11.93c-14.15,31.65-26.92,63.9-40.62,95.75-3.12,7.26-2,9.47,5.88,11.53,14.14,3.7,26.38-.14,37.3-9.29a70.16,70.16,0,0,0,19.86-27.38c8.41-20.3,10.91-41.34,6.09-62.83-6.79-30.19-29.25-45.7-60-42.15-12.5,1.44-24.24,5-34.42,12.65-6.9,5.2-12.16,11.59-14.22,20.28-1.42,6,0,10.83,4.88,14.59,1.57,1.19,3.1,2.43,4.65,3.65,6.17,4.82,8.63,11.13,6.65,18.67S68,337.59,60.3,339c-15.57,2.83-29.43-9.15-30.3-26.3s5.91-31.26,17.48-43.3c14.29-14.86,32.26-22.74,52.26-26.22,22.08-3.84,43.92-3.38,64.26,7.26C192.53,265.36,206.37,289.54,207.23,318.71Z"/><path class="cls-2" d="M567.84,387.58c-2.63-2.41-4.51.35-6.36,2-1.38,1.19-2.56,2.72-4.11,3.57-2.22,1.2-4.12.69-3.55-2.35,1.77-9.54-2.36-16.19-9.77-21.65-5.82-4.29-6.55-9.22-3-15.52a58.17,58.17,0,0,0,4-7.37c3.62-9.24-2.4-18-12.31-18.19-9.3-.17-16.77,6.1-18.67,15.65-1.26,6.33.1,12.25,2.59,18.07,2.12,5,1.25,8.21-3.76,9.78-10,3.13-15.94,9.53-18.26,19.58a4.74,4.74,0,0,1-.52,1.15c-1.91,3.54-5.82,5.71-9,4.79-4.33-1.24-3.59-4.85-3.37-8,.8-11.44,4.2-22.35,6.83-33.42,1.53-6.44,5.26-9.62,11.45-10.6a20.92,20.92,0,0,0,2.47-.54c2.08-.58,3.64-1.88,3.69-4.08.05-2.36-1.79-3.24-3.87-3.74-5.39-1.31-6.05-2.47-3.89-7.55,1.71-4,3.92-7.79,5.46-11.85,2.18-5.78-.85-9.78-7-9.67a28.35,28.35,0,0,0-26.15,18.48c-1.68,4.55-3.7,8.73-7.47,12-2.59,2.24-3.56,5.08-1.25,8.21,1.4,1.89,1.23,3.89.73,6-2.4,10.42-4.65,20.86-7.13,31.26a18.54,18.54,0,0,1-8.65,12c-2.35,1.41-4.94,2.44-7.53.7s-2.1-4.36-1.75-6.91c1.18-8.58,4.63-16.47,7.41-24.57,1.6-4.64,3.66-9.18,4-14.15.35-5.48-1.93-7.77-7.39-7.73-2,0-3.94.11-5.91.27-10.44.84-14.75,4.58-17.17,14.73a247.59,247.59,0,0,1-6.74,24.37c-2.06,5.92-5.67,10.67-11.43,13.47-2.67,1.29-5.56,2.62-8.4.69s-1.71-5.09-1.36-7.79a37,37,0,0,1,1.48-6.57c2.43-7.48,5-14.9,7.48-22.37,1.1-3.34,2.2-6.71,2.13-10.28-.08-4.38-2.46-6.8-6.83-6.83a41,41,0,0,0-10.45,1.27c-7.17,1.82-11.74,6-13.4,13.5-2,9.19-4.49,18.29-6.84,27.42-1.18,4.59-3.12,8.81-7.51,11.24s-7.49.6-7.62-4.4c-.1-4.29,1.23-8.32,2.43-12.36,1.87-6.33,4.21-12.54,5-19.14,1.25-10.05-4.9-17-14.95-17.07a30.58,30.58,0,0,0-13.85,3.18c-2.27,1.12-4.51,2.3-6.82,3.33-2.73,1.23-4.89.81-6.09-2.28-.9-2.32-2.32-4.37-4.93-4.76-7.55-1.12-20.78,2.79-23.13,14-1.74,8.25-3.91,16.41-5.88,24.62-.81,3.39-2.25,6.4-5.43,8.17-1.85,1-4,2-5.93.45s-1.19-3.88-.27-5.82c1.62-3.42,3.42-6.75,4.4-10.46,4.18-15.9-2.64-29.29-17.2-32.19C230.15,336,203,352.33,196.25,376.93c-4.73,17.27,5.38,33.37,23,36.46,12.34,2.16,23.75-.63,34.27-7.28a42.42,42.42,0,0,1,16.32-6.5c5.34-.81,6.38-.17,7.82,5,.73,2.63,1.71,5.05,4.31,6.45,7.76,4.16,18.32-.81,20.12-9.43,1.75-8.39,3.59-16.78,6.79-24.78,2.88-7.22,7.32-13.27,14.09-17.36,1.68-1,3.62-2.06,5.52-.75s1.55,3.51,1.08,5.42c-.82,3.27-1.79,6.5-2.78,9.73-2,6.59-4.12,13.18-4.3,20.15-.25,9,5,15.61,13.77,17.68,8.27,1.95,15.14-.53,21.36-6,4.42-3.91,6.07-3.79,9.94.31,5.34,5.67,11.94,7,19.29,6.12,7-.88,12.45-4.89,18-8.76,4.55-3.17,5.76-3.07,9,1.35,4,5.51,9.48,7.6,16.05,7.7,7.44.12,13.62-2.72,19.23-7.39,4.56-3.8,5.91-3.72,9.84.7,4.49,5,10.06,6.92,16.6,6.68a26.42,26.42,0,0,0,15.49-5.94c2.95-2.27,6-3.07,9.22-.52,7.46,5.93,16.18,7.53,25.88,7.53a39.85,39.85,0,0,0,14.09-1.82c10.46-3.26,19.44-8.81,26.32-17.44C568.09,392.32,570.43,389.94,567.84,387.58ZM245,375.43c-7,2.8-8.84,7.81-6.89,15.49,1.22,4.79,0,8.51-3.67,11.11-4.41,3.13-8.54,1.7-10.08-3.5-1-3.33-.62-6.68-.16-10a65.91,65.91,0,0,1,10.17-27.79,23.66,23.66,0,0,1,7-7.21c5.87-3.68,10.54-1.53,11.49,5.28.15,1.1.13,2.24.19,3.36C253.11,368.22,251.4,372.88,245,375.43Zm276.09,27.16c-2.51-1.12-3-2.74-.49-4.16,5.53-3.12,7.33-7.41,4.81-13.33a1.42,1.42,0,0,1,.33-1.86,1.92,1.92,0,0,1,2,0c3.32,1.24,6.78,6.54,6.74,10.41C534.44,400.23,527,405.22,521.12,402.59Z"/></g></g></svg>