<svg xmlns="http://www.w3.org/2000/svg" viewBox="0 0 612 612"><defs><style>.cls-1{fill:#fff;}.cls-2{fill:#454545;}.cls-3{fill:#ac2428;}</style></defs><g id="Layer_2" data-name="Layer 2"><g id="Layer_1-2" data-name="Layer 1"><rect class="cls-1" width="612" height="612" rx="12"/><path class="cls-2" d="M460.52,355l29.62-64.21c4.68-10.15,9.38-20.29,14-30.46a2.72,2.72,0,0,1,2.89-2q28.76.11,57.5,0c1.72,0,2,.54,2,2.1q-.06,100.85,0,201.69c0,1.84-.56,2.11-2.21,2.11q-26.05-.09-52.12,0c-2,0-2.24-.63-2.23-2.36q.06-51.18,0-102.36V357l-.43-.12q-2.9,6.39-5.79,12.77-13.68,30.22-27.32,60.46a2.67,2.67,0,0,1-2.92,1.86c-8.64-.09-17.29-.11-25.94,0-1.8,0-2.53-.64-3.22-2.17q-16.08-35.76-32.28-71.49c-.22-.48-.48-1-.83-1.63a4.23,4.23,0,0,0-.35,2.55q0,51.18,0,102.37c0,2.15-.56,2.63-2.65,2.62q-25.83-.13-51.65,0c-1.73,0-2.17-.38-2.17-2.15q.08-100.73,0-201.46c0-1.83.46-2.3,2.29-2.29q28.64.11,57.26,0a2.86,2.86,0,0,1,3.1,2q21.08,46.17,42.24,92.29C459.7,353.32,460,354,460.52,355Z"/><path class="cls-2" d="M115.48,361.3q0,50.24.06,100.47c0,2.1-.56,2.5-2.55,2.49q-34-.12-68,0c-2.15,0-2.5-.61-2.5-2.59q.09-100.35,0-200.7c0-2.2.64-2.64,2.71-2.64q33.76.12,67.52,0c2.18,0,2.83.4,2.82,2.73Q115.41,311.19,115.48,361.3Z"/><path class="cls-3" d="M244.24,244.15c-24.21.69-45.73-20.22-45.36-45.84a45.52,45.52,0,0,1,45.76-44.9c24.9,0,45.07,20.41,45.12,45.53C289.81,224.73,268.14,244.89,244.24,244.15Z"/><path class="cls-2" d="M337,462.83q-35.1-101.37-70.17-202.74c-.52-1.49-1.29-1.74-2.7-1.73-15.66.05-31.32.08-47,0-2.1,0-2.92.65-3.58,2.56q-32.39,93.3-64.86,186.57c-1.92,5.53-3.82,11.07-5.78,16.75,18.56,0,36.87,0,55.17.05,1.94,0,2.78-.51,3.34-2.44,2.88-10,6-19.92,8.89-29.89.44-1.46,1.05-1.66,2.42-1.24a95.23,95.23,0,0,0,55.15.43c1.41-.41,1.91-.12,2.34,1.34,2.57,8.63,5.27,17.21,7.94,25.81.6,1.92.67,4.63,2,5.55s4,.38,6.1.38c17,0,34,0,51.16,0C337.18,463.55,337.08,463.19,337,462.83ZM257.64,388a52.1,52.1,0,0,1-35.41-.77c-1.62-.61-.91-1.53-.66-2.37q8.67-29,17.41-57.95a12.23,12.23,0,0,1,1.46-3.94c6.08,21.27,12.07,42.23,18.1,63.19C258.85,387.28,258.73,387.68,257.64,388Z"/></g></g></svg>