<svg xmlns="http://www.w3.org/2000/svg" viewBox="0 0 612 612"><defs><style>.cls-1{fill:#fff;}.cls-2{fill:#f696a1;}.cls-3{fill:#eb1b30;}.cls-4{fill:#fefefe;}.cls-5{fill:#fdfbfb;}.cls-6{fill:#fdfcfc;}.cls-7{fill:#fdfcfb;}.cls-8{fill:#fdfafa;}.cls-9{fill:#fdfaf9;}.cls-10{fill:#fdf7f7;}.cls-11{fill:#fdf8f8;}.cls-12{fill:#fcf7f7;}.cls-13{fill:#fcf9f8;}.cls-14{fill:#fbeaea;}.cls-15{fill:#fbf0f1;}.cls-16{fill:#faefef;}.cls-17{fill:#fcf6f6;}.cls-18{fill:#fcf8f8;}.cls-19{fill:#fcf7f6;}.cls-20{fill:#fcf3f3;}.cls-21{fill:#fdfdfc;}.cls-22{fill:#fbf0f0;}.cls-23{fill:#fdf9f9;}.cls-24{fill:#fbf2f2;}.cls-25{fill:#fcf5f4;}.cls-26{fill:#ec7e84;}.cls-27{fill:#ef9c9f;}.cls-28{fill:#0aa750;}.cls-29{fill:#98867d;}.cls-30{fill:#98877d;}.cls-31{fill:#ea1a2f;}.cls-32{fill:#f1aeb0;}.cls-33{fill:#eb1a2f;}.cls-34{fill:#eb1f33;}.cls-35{fill:#e91729;}.cls-36{fill:#e70d1a;}.cls-37{fill:#ea303e;}.cls-38{fill:#e91b2d;}.cls-39{fill:#faecec;}.cls-40{fill:#fefdfd;}.cls-41{fill:#e92033;}</style></defs><g id="Layer_2" data-name="Layer 2"><g id="Layer_1-2" data-name="Layer 1"><rect class="cls-1" width="612" height="612" rx="12"/><path class="cls-2" d="M307.57,474.84H43.2a10.66,10.66,0,0,1-10.49-10.53q0-147.09,0-294.18c0-6.13,4.18-10.61,10.93-10.61q218.27.15,436.54.08,46,0,91.94,0a11.36,11.36,0,0,1,9.13,3.88c2.1,2.44,2.44,5.61,2.53,8.53.21,6-.28,12-.32,18.07-.07,10.21-.13,20.43,0,30.64,1,80.13.13,160.25.46,240.38a19.83,19.83,0,0,1-2.66,9.47c-1.54,2.87-4.41,3.77-7.4,4.26a16,16,0,0,1-2.5,0Z"/><path class="cls-3" d="M307.43,473.71H42.78a9.17,9.17,0,0,1-9-9.12q0-147.37,0-294.74c0-6,3.17-9.12,9.1-9.12q264.66,0,529.31,0c3.41,0,6.27.88,8.34,3.56a13.66,13.66,0,0,1,2.52,8c.16,4.26-.19,8.53-.21,12.79,0,12.08-.1,24.15,0,36.22.64,79.76.08,159.53.33,239.29a20.26,20.26,0,0,1-1.73,7.76c-1.63,4-4.85,5.43-9.11,5.43Q439.91,473.68,307.43,473.71Z"/><path class="cls-4" d="M308,358.91q-131.76,0-263.53.06c-2.71,0-3.41-.75-3.41-3.42q.1-91.38.06-182.75c0-4.75.19-4.93,4.79-4.93H570.48c4.16,0,4.48.28,4.48,4.38q0,91.78.07,183.58c0,3.14-1.5,3.1-3.76,3.1Q439.65,358.89,308,358.91Z"/><path class="cls-5" d="M332.87,410.42c-8.56,0-15-6.85-15.07-15.95s6.47-16.06,15-16.11,15.34,7.15,15.26,16.15S341.32,410.42,332.87,410.42Z"/><path class="cls-6" d="M378.05,394c0-4.08-.05-8.17,0-12.25,0-1.18-.72-2.88,1.06-3.34a4,4,0,0,1,4.62,1.64c3.92,5.39,8,10.68,12,16,.22.3.45.59.66.9.35.53.66,1.23,1.47.87.63-.27.46-.95.46-1.48q0-7,0-13.92c0-3,2.43-4.42,5.18-3.16,1,.46.9,1.31.9,2.13q0,13.38,0,26.74c0,.8.23,1.89-.93,2-1.53.16-3.15.53-4.33-1.06q-6.15-8.24-12.35-16.42c-.22-.3-.42-.61-.65-.9-.45-.57-.83-1.5-1.65-1.28s-.46,1.27-.47,1.93c0,4.92-.13,9.84,0,14.76.09,2.6-1.5,2.25-3.08,2.26s-3.1.18-3-2.35C378.19,402.77,378.05,398.4,378.05,394Z"/><path class="cls-7" d="M353.16,394.37c0-4.17.08-8.35,0-12.51-.06-2.1.75-2.84,2.77-2.7,2.86.2,5.74-.22,8.59.38,3.5.73,5.92,2.57,6.66,6.19.92,4.53-.34,8.4-3.69,10.25-1.83,1-1.64,1.81-.66,3.19,2,2.87,3.95,5.8,6,8.67.73,1,.52,1.4-.67,1.62-4.11.76-5.88,0-7.93-3.63-1-1.77-2-3.53-3.05-5.29-.32-.54-.57-1.41-1.29-1.27-1,.2-.64,1.2-.65,1.88a56.59,56.59,0,0,0,.06,6.11c.25,2.71-1.63,2.14-3.09,2.18s-3.16.32-3-2.29C353.3,402.9,353.16,398.63,353.16,394.37Z"/><path class="cls-5" d="M313.61,380.74c-3.16,3.76-6.29,7.54-9.48,11.26-1.11,1.31-.26,2.2.46,3.16,3.05,4.07,6.12,8.13,9.16,12.21.37.49,1.09,1,.75,1.65s-1.16.34-1.78.46c-3.89.76-6.38-.88-8.33-4.21a38.25,38.25,0,0,0-6.47-8c0,3.14-.17,6.3.06,9.43.17,2.35-.81,2.71-2.85,2.84-2.69.18-3.47-.7-3.41-3.4.18-8,.13-16,0-23.94,0-2.27.64-3.1,3-3.09s3.41.58,3.22,3.13c-.2,2.74-.05,5.51-.05,8.67,2.28-1.44,3.08-3.59,4.51-5.17,1.21-1.41,2.25-3,3.35-4.46h0c1.47-1.69,5.87-2.7,7.7-1.72C314,379.82,313.91,380.31,313.61,380.74Z"/><path class="cls-5" d="M204.57,391.37a41.62,41.62,0,0,0,6.6-8.49c1.87-2.91,4.16-4.3,7.59-3.7.6.11,1.39-.25,1.73.52s-.33,1.16-.74,1.65c-2.77,3.35-5.44,6.79-8.34,10-1.3,1.44-1.13,2.42,0,3.8,3.11,4,6.12,8.13,9.17,12.21.38.5,1.12,1,.82,1.63s-1.14.38-1.77.47c-3.78.58-6.4-.63-8.41-4.14a40,40,0,0,0-6.61-8.85c0,3.95-.21,7.16.06,10.32.25,2.82-1.35,2.61-3.22,2.7s-2.79-.38-2.76-2.59q.2-12.54,0-25.07c0-2.37,1-2.71,3-2.73s3.05.56,2.92,2.84C204.44,384.8,204.57,387.65,204.57,391.37Z"/><path class="cls-8" d="M248.2,409.33c-2.64.6-3.84-.42-4.18-2.68-.38-2.57-1.86-3.66-4.46-3.27a7.25,7.25,0,0,1-2.23,0c-3.61-.59-6,.46-6.8,4.39-.31,1.5-5.11,2.47-6.29,1.44-.82-.7-.12-1.37.12-2q4.37-11.6,8.77-23.16a35.57,35.57,0,0,0,1.27-3.39,2.91,2.91,0,0,1,3.21-2.4,3,3,0,0,1,3.28,2.3c3.24,9,6.68,17.89,9.9,26.88C252.08,411.06,248.74,408.63,248.2,409.33Z"/><path class="cls-9" d="M263.8,410.42c-3.62,0-6.33-1.75-8.54-4.46-1.67-2,.54-2.71,1.4-3.77,1-1.29,1.88-.82,2.81.43,1.33,1.79,3.14,3,5.52,2.12a3.82,3.82,0,0,0,2.48-4,3.94,3.94,0,0,0-2.46-3.7c-1.59-.75-3.25-1.37-4.8-2.19a8.13,8.13,0,0,1-4.29-10,8.8,8.8,0,0,1,9.24-6.46,13.66,13.66,0,0,1,5,1.48c2.64,1.27,2.78,2,1.06,4.38-.74,1-1.46,1.43-2.47.47a4.34,4.34,0,0,0-2.53-1c-1.95-.27-3.62.36-4.28,2.28s.77,3.09,2.34,3.85c2.23,1.1,4.67,1.87,6.59,3.48,2.88,2.4,3.76,7.14,2.27,11A9.61,9.61,0,0,1,263.8,410.42Z"/><path class="cls-10" d="M304.71,439.39c0,4.47-.1,8.53,0,12.6.07,2-.78,2.29-2.47,2.29s-2.53-.38-2.5-2.31c.1-6.49,0-13,0-19.48,0-1-.11-2.17,1.24-2.46a2.9,2.9,0,0,1,3.2,1.1c3.16,4.23,6.37,8.42,9.56,12.62.38.5.6,1.42,1.33,1.22.89-.24.64-1.2.63-1.92,0-3.34,0-6.68,0-10,0-1.64.33-2.63,2.29-2.61s2.68.63,2.65,2.58c-.07,6.31,0,12.62,0,18.93,0,1,.44,2.39-1.11,2.77a3,3,0,0,1-3.44-1.17c-3-4.08-6.15-8.12-9.18-12.2A5.83,5.83,0,0,0,304.71,439.39Z"/><path class="cls-11" d="M336.15,430c6.52,0,11.91,5.63,11.89,12.47,0,7-5.13,12.47-11.78,12.57s-11.85-5.46-11.85-12.45S329.6,430,336.15,430Z"/><path class="cls-8" d="M136.33,439.59c0,4-.12,8.05,0,12.06.09,2.12-.59,2.73-2.66,2.65-1.74-.07-2.21-.71-2.2-2.33.06-6.4,0-12.8,0-19.19,0-1.06-.32-2.36,1.2-2.75a3,3,0,0,1,3.38,1.34q4.49,6,9,12c.49.65,1.07,1.23,1.92,2.19.73-2.63.23-4.91.34-7.14a49,49,0,0,0,0-5.28c-.11-1.84.44-2.68,2.48-2.68,2.22,0,2.31,1.23,2.3,2.87,0,6.21,0,12.42,0,18.63,0,1.05.4,2.39-1.13,2.78a3,3,0,0,1-3.39-1.3c-2.92-3.94-5.88-7.84-8.82-11.76l-1.62-2.2Z"/><path class="cls-12" d="M515.78,442.29c.08,7-5,12.59-11.63,12.7s-12-5.46-12-12.61a12.18,12.18,0,0,1,11.92-12.44C510.4,429.94,515.71,435.53,515.78,442.29Z"/><path class="cls-8" d="M388.78,442.56c0,7.1-5.22,12.53-11.88,12.42s-11.59-5.49-11.59-12.43,5.21-12.66,11.74-12.6S388.8,435.52,388.78,442.56Z"/><path class="cls-12" d="M391.61,442.34c0-5.25,2.92-10,7.5-11.66,4.1-1.5,8.09-1,11.37,2.14.87.83,2.76,1.85,1.23,3.31-1.25,1.19-2.84,2.14-4.69,0-2.7-3.09-6.8-2.4-9.07,1.17a10,10,0,0,0,.66,11.23,5.51,5.51,0,0,0,9-.49c1-1.63.81-2.59-1.38-2.53-1.34,0-2.87.39-2.88-1.89s1.58-2.06,3.05-2.07c1.67,0,3.34.08,5,0,2-.13,2.56.81,2.36,2.69-.71,6.64-5.21,11-11.18,10.74C396.16,454.7,391.56,449.4,391.61,442.34Z"/><path class="cls-12" d="M464.89,441.58c5.77,0,5.79.1,4.41,5.44-1.13,4.32-3.77,7-8.13,7.74a10.33,10.33,0,0,1-10.27-3.53c-3.47-4.16-3.95-9-2.08-13.88a10.82,10.82,0,0,1,9.9-7.38,10.06,10.06,0,0,1,8.66,3.56c.61.69,1.9,1.66.67,2.5s-2.41,2.49-4.09.76a7.14,7.14,0,0,0-3.34-2.4,5.89,5.89,0,0,0-6.58,3.09,10.21,10.21,0,0,0,.24,10.38,5.66,5.66,0,0,0,9.07.88,2.78,2.78,0,0,0,.93-2.51c-.32-1-1.41-.66-2.2-.66-1.39,0-2.64,0-2.54-2,.06-1.39.58-2.07,2-2C462.66,441.61,463.78,441.58,464.89,441.58Z"/><path class="cls-13" d="M61.74,442.59c0-3.25.07-6.5,0-9.75-.06-1.83.62-2.52,2.44-2.37,1.57.12,3.16-.08,4.72.09a6.21,6.21,0,0,1,5.32,8.7c-.75,1.8-.48,2.62.89,3.95,2,1.89,2,4.53,1.07,7a5.72,5.72,0,0,1-5.25,3.92c-2.41.15-4.83,0-7.24.1-1.45.05-2-.47-1.94-1.93C61.79,449.08,61.74,445.83,61.74,442.59Z"/><path class="cls-14" d="M276.88,442.31c0-3.25.06-6.5,0-9.74,0-1.81.89-2.14,2.43-2.15s2.53.28,2.45,2.11,0,3.52,0,5.28c0,1.37.46,1.94,1.92,2,6.43.44,6.4.48,6.45-5.9,0-1.52-.71-3.52,2.14-3.54,1.9,0,2.66.57,2.63,2.54q-.12,9.46,0,18.92c0,1.78-.48,2.48-2.35,2.45s-2.61-.41-2.47-2.33,0-3.72.07-5.57-.77-2.61-2.64-2.58c-6.87.1-5.65-.54-5.74,5.51a23.13,23.13,0,0,0,0,2.5c.17,1.76-.46,2.47-2.34,2.47s-2.64-.58-2.56-2.55C277,448.62,276.88,445.46,276.88,442.31Z"/><path class="cls-10" d="M98.36,439.58a57.64,57.64,0,0,1-.07,7.78c-.49,3.61-2.22,6.44-6.21,7.27-3.49.73-6.67.37-9.15-2.43-1.68-1.89-2.09-4.35-2.17-6.76-.14-4.26,0-8.53-.09-12.8,0-1.77.76-2.21,2.36-2.2s2.65.27,2.61,2.27c-.09,4.26,0,8.53,0,12.8a6,6,0,0,0,1.13,3.94,3.47,3.47,0,0,0,3.77,1.17,4.14,4.14,0,0,0,3-4.23c.14-4.45.18-8.91.08-13.36,0-1.92.52-2.64,2.51-2.59,1.81,0,2.51.67,2.44,2.46-.09,2.23,0,4.46,0,6.68Z"/><path class="cls-15" d="M479.35,446.57c-1.09,1.89-.59,3.77-.57,5.53s-.7,2.2-2.32,2.19-2.58-.22-2.55-2.23c.11-6.39.08-12.78,0-19.17,0-1.79.64-2.58,2.45-2.43,2.38.19,4.81-.34,7.15.53a7.1,7.1,0,0,1,2.23,12.27c-1.89,1.48-1.7,2.27-.37,3.86a59.73,59.73,0,0,1,3.69,5.53c.77,1.18.39,1.53-.94,1.64-2.48.2-4.46-.16-5.64-2.78A13.17,13.17,0,0,0,479.35,446.57Z"/><path class="cls-8" d="M519.63,439.71c0-2.23.06-4.46,0-6.68-.07-1.67.35-2.56,2.29-2.58s2.42.71,2.38,2.46c-.08,3.71,0,7.42,0,11.13a11.1,11.1,0,0,0,.5,3.84c.63,1.72,1.77,2.9,3.68,2.86a3.67,3.67,0,0,0,3.67-3.19c.62-2.66.29-5.36.35-8,0-2.13.08-4.27,0-6.4-.08-1.86.53-2.68,2.53-2.67s2.32.95,2.29,2.6c-.08,4.36.08,8.72-.12,13.07-.26,5.81-3.53,8.95-8.87,8.87s-8.46-3.39-8.62-9.15c-.06-2,0-4.08,0-6.12Z"/><path class="cls-16" d="M157.2,442.37c0-3.15.05-6.3,0-9.45,0-1.71.48-2.57,2.38-2.48,2.59.12,5.19.11,7.78,0,1.68-.07,2.29.61,2.36,2.24s-.77,2.07-2.21,2c-.83-.05-1.67,0-2.5,0-1.93-.16-3.1.14-3.06,2.62s1.38,2.47,3.21,2.56,4.48-1.28,4.17,2.47c-.1,1.25-.52,1.9-1.83,1.83-.74,0-1.48,0-2.23,0-3,0-4.38,2.3-3.17,5.12.37.86,1.09.91,1.84.91,1.2,0,2.41,0,3.61-.07,1.56-.09,2.11.66,2.15,2.17s-.63,2.1-2.16,2c-2.68-.09-5.37-.12-8.05,0-1.91.09-2.37-.74-2.31-2.47.1-3.15,0-6.3,0-9.45Z"/><path class="cls-17" d="M542.17,442.45c0-3.15,0-6.3,0-9.45,0-1.73.59-2.65,2.43-2.52,2.56.19,5.16-.37,7.68.7,3.45,1.45,4.92,4.29,4.24,8.62-.53,3.36-2.74,5.6-6.22,5.57-2.76,0-3.66,1-3.29,3.56.12.91-.07,1.86,0,2.77.22,1.9-.44,2.61-2.44,2.61s-2.52-.84-2.45-2.68C542.25,448.57,542.17,445.51,542.17,442.45Z"/><path class="cls-12" d="M239,442.31c0-3.06.09-6.12,0-9.18-.09-2.11.73-2.79,2.76-2.68,2.5.14,5,.09,7.51,0,1.68-.05,2.29.64,2.34,2.3s-.94,1.94-2.29,1.87a23.11,23.11,0,0,1-2.5,0c-2.64-.44-3.16.86-3,3.16.12,1.56.67,2.18,2.21,2.05.92-.09,1.86,0,2.78,0,1.49-.06,2.51.26,2.5,2.1s-.78,2.34-2.39,2.21c-.46,0-.93,0-1.39,0-3.56,0-4.6,1.45-3.65,5,.26.95.85,1.12,1.63,1.13,1.3,0,2.6,0,3.89,0,1.53-.07,2.15.55,2.19,2.11s-.78,2-2.22,2c-2.69-.07-5.39-.11-8.07,0-1.92.08-2.36-.78-2.3-2.5C239.09,448.62,239,445.46,239,442.31Z"/><path class="cls-17" d="M198.73,455c-1.77-.26-3.85-.63-5.38-2.39-.93-1.07-2.43-1.84-.68-3.6,1.54-1.56,2.37-1,3.47.39a3.23,3.23,0,0,0,3.8.94,2.71,2.71,0,0,0,1.78-2.86,3.19,3.19,0,0,0-2.3-3.14,24.56,24.56,0,0,1-4-1.91c-2.64-1.57-3.3-4-2.79-6.71a6.57,6.57,0,0,1,4.93-5.48,8.39,8.39,0,0,1,7.58,1.73,1.26,1.26,0,0,1,.12,2c-.57.63-.91,1.79-2.15,1.28a14,14,0,0,0-1.45-.81c-1.54-.45-3.09-.41-3.85,1.23s.51,2.75,1.85,3.48c1,.58,2.25.87,3.3,1.46,3.33,1.86,4.54,5.11,3.45,9.06C205.54,452.79,202.58,455,198.73,455Z"/><path class="cls-18" d="M110.49,430a10.93,10.93,0,0,1,4.62,1.35c1.15.68,1.77,1.42,1,2.66-.65,1.06-1.3,1.83-2.86.8s-3.57-1.36-4.53.74.69,3.11,2.46,3.85c6.1,2.56,7.88,6.33,5.59,11.4-1.32,2.93-3.77,4-6.65,4.18a8,8,0,0,1-7.09-3.66c-1.05-1.43.45-1.89,1.06-2.68.75-1,1.51-.92,2.24,0a4.38,4.38,0,0,0,.89,1.05c1.1.73,2.26,1.4,3.62.68a3,3,0,0,0,1.73-2.92,3.21,3.21,0,0,0-2-3,20.75,20.75,0,0,1-4-1.86,6.37,6.37,0,0,1-2.85-7.68A7.07,7.07,0,0,1,110.49,430Z"/><path class="cls-19" d="M181.26,430a10.61,10.61,0,0,1,4.73,1.44c1.15.7,1.63,1.48.8,2.71-.69,1-1.42,1.73-2.69.73a3.19,3.19,0,0,0-2.64-.61,2.37,2.37,0,0,0-2.22,1.78,2.19,2.19,0,0,0,1.18,2.57c1.22.66,2.52,1.16,3.77,1.77,3.22,1.57,4.52,4.16,4.15,7.71a7.18,7.18,0,0,1-5.2,6.46,7.87,7.87,0,0,1-8.52-2.41c-1.15-1.27-.89-2.14.21-3.29s1.85-1,2.83.23,2.16,2.14,3.85,1.36a3,3,0,0,0,2-2.79c-.06-1.77-1.22-2.77-2.79-3.44-5.2-2.23-6.74-4.17-6.36-7.9A7.09,7.09,0,0,1,181.26,430Z"/><path class="cls-20" d="M266,429.93c5.11,0,6.45,1.17,6.27,4.66-.09,1.76-.7,1.92-2,1-2.6-1.78-5.07-1.43-7.37.57-2.67,2.32-3.16,5.32-2.42,8.59a6.53,6.53,0,0,0,9.1,5c.84-.32,2.06-2,2.54,0,.36,1.48.94,3.58-1.47,4.47a11.1,11.1,0,0,1-13.52-4.71,12.75,12.75,0,0,1-.28-13.5A11,11,0,0,1,266,429.93Z"/><path class="cls-21" d="M279.23,394.1c0-4.17.09-8.34,0-12.51-.07-2.1.91-2.54,2.69-2.42,1.61.11,3.47-.46,3.45,2.28q-.09,13.05,0,26.12c0,2.56-1.86,1.82-3.15,1.85s-3.07.56-3-2C279.33,403,279.23,398.54,279.23,394.1Z"/><path class="cls-22" d="M422.87,447.75c1.22-4.63-2.57-8.08-4.51-12.18a14.43,14.43,0,0,1-1-1.66c-.35-1.08-2.2-2.44-.52-3.23,1.33-.62,3.57-1,4.74,1a52,52,0,0,1,2.37,4.72c.29.62.56,1.21,1.35,1.17.63,0,.9-.57,1.16-1.08q1.17-2.2,2.36-4.41c.46-.84,1-1.61,2.11-1.54s2.66-.63,3.4.45-.53,2-1,3a12.34,12.34,0,0,1-1.33,2.12c-3.28,4.6-5.11,9.58-4.28,15.34.26,1.79-.08,2.94-2.43,2.93s-2.6-1.1-2.46-2.93C422.94,450.39,422.87,449.36,422.87,447.75Z"/><path class="cls-23" d="M226.26,444.31c0-2.31-.1-4.63,0-6.94.11-1.95-.39-3-2.58-2.76-1.47.19-2.51-.09-2.4-2,.09-1.76,1-2.16,2.52-2.13,3.23.06,6.47.07,9.71,0,1.53,0,2.15.57,2.21,2.11s-.65,2.23-2.15,2c-2.42-.35-2.7,1-2.65,3,.1,4.81,0,9.62.07,14.43,0,2-.86,2.25-2.52,2.27s-2.34-.47-2.27-2.2C226.33,449.49,226.25,446.9,226.26,444.31Z"/><path class="cls-24" d="M351.92,442.32c0-3.15.07-6.31,0-9.46-.06-1.83.65-2.42,2.44-2.43s2.52.7,2.51,2.45c0,4.64,0,9.28-.06,13.92,0,3.38-.07,3.47,3.31,3.32,1.81-.08,3.43-.18,3.23,2.44-.09,1.16-.5,1.69-1.67,1.69-2.69,0-5.38-.05-8.07,0-1.41,0-1.69-.71-1.68-1.92C351.94,449,351.91,445.66,351.92,442.32Z"/><path class="cls-25" d="M126.41,442.4c0,3.24-.08,6.47,0,9.7.07,1.76-.59,2.25-2.25,2.18-1.43-.06-2.48-.08-2.46-2,.08-6.56.06-13.12,0-19.68,0-1.79.9-2.1,2.44-2.14,1.7-.05,2.29.58,2.25,2.26C126.35,435.93,126.41,439.17,126.41,442.4Z"/><path class="cls-26" d="M214.68,442c3.88,0,4.84.58,4.1,2.91-1.05,3.28-4,1.13-6,1.6-1.26.29-2.68.13-2.79-1.78-.09-1.58.16-2.82,2.16-2.73C213,442.05,213.84,442,214.68,442Z"/><path class="cls-27" d="M313.61,380.74c-1.74-1.75-5.13-1.52-7.83.54,1-2,6.43-3.41,8.07-2.08C314.45,379.69,314.35,380.33,313.61,380.74Z"/><path class="cls-27" d="M305.78,381.27a8.1,8.1,0,0,1-3.35,4.46A9.23,9.23,0,0,1,305.78,381.27Z"/><path class="cls-28" d="M113.73,252.71c.93,0,1.08-.66,1.21-1.15,1.91-7.39,6.31-13.58,9.85-20.16,7.18-13.37,14.62-26.6,21.79-40,1.38-2.58,2.88-3.69,6-3.66,17.46.16,34.91.07,52.37.09.89,0,2.06-.45,2.62.37.76,1.09-.5,1.88-1,2.65-6.84,10.68-13.78,21.29-20.64,32-7.9,12.29-15.74,24.62-23.63,36.92a2.64,2.64,0,0,0,.22,3.3q8.06,11.79,16,23.65,15.47,23.06,30.87,46.13c.92,1.38,1.89,2.74,2.85,4.1,1.09,1.56.56,2.07-1.2,2.05-6.12,0-12.25,0-18.38,0-13.28,0-26.55-.07-39.83.06a4.58,4.58,0,0,1-4.56-2.76c-10.29-18-20.22-36.22-31.06-53.91a61.09,61.09,0,0,1-3.06-6.73,4.37,4.37,0,0,0-.68,3.25c.36,18.84.67,37.68,1.15,56.52.07,2.75-.52,3.67-3.45,3.64q-23.54-.23-47.07,0c-2.52,0-3.09-.79-3.09-3.18q.09-72.42,0-144.84c0-2.65.81-3.24,3.33-3.23q23.53.17,47.07,0c2.65,0,3.28.81,3.22,3.34-.45,19.48-.79,39-1.15,58.46C113.43,250.64,113.15,251.75,113.73,252.71Z"/><path class="cls-29" d="M525.84,258.61c9.85,0,19.69.07,29.53-.05,2.32,0,3,.67,3,3,.17,15.51-2.46,30.44-9.06,44.54-8.91,19.05-23.54,31.1-44.26,35.29-15.12,3.06-29.91,1.87-44.12-4.45a66.36,66.36,0,0,1-26.76-21.53C421.58,298.33,416.73,279,417.87,258c.78-14.2,4.48-27.69,12-39.77,11.41-18.3,27.69-30.11,49.22-33.45,19.77-3.07,38.28.54,54.44,13a64.44,64.44,0,0,1,16.82,20.11c.92,1.66.06,2.33-1.22,3-6.34,3.45-12.65,6.94-19,10.37-4.52,2.44-4.56,2.41-7.18-1.91-6.08-10-14.58-16.87-26.24-18.82-13.9-2.31-26,2-34.71,13-14.19,17.87-16.79,38.28-10.71,59.93,3.23,11.49,9.3,21.18,19.68,27.63,18.52,11.52,41.5,5.11,51.13-15a42.4,42.4,0,0,0,3.13-10.34c.44-2.23-.26-3.22-2.73-3.18-8.64.11-17.27,0-25.91.09-2.39,0-3.26-.65-3.19-3.17q.27-8.89,0-17.82c-.07-2.54.81-3.13,3.19-3.1C506.34,258.68,516.09,258.61,525.84,258.61Z"/><path class="cls-30" d="M223.39,263.15c0-23.95,0-47.91-.06-71.86,0-2.58.54-3.54,3.34-3.5,13.27.18,26.56-.08,39.83.24A48.91,48.91,0,0,1,287.16,193c9.5,4.7,14.86,12.61,17.11,22.69,2,8.9,2.08,17.83-.69,26.65a30.05,30.05,0,0,1-8.86,14.17c-1.17,1-1.5,1.68.25,2.21,13.91,4.27,20,14.91,22.42,28.17,1.75,9.53,1.19,19-2.71,28.11-4.14,9.64-11.49,15.91-21.05,19.8C286,337.87,278.06,338.9,270,339c-14.48.08-29,0-43.45.08-2.46,0-3.17-.76-3.16-3.19C223.42,311.61,223.39,287.38,223.39,263.15Z"/><path class="cls-29" d="M354.17,276.32c0-19.77-.05-39.55.05-59.32,0-2.69-.79-3.5-3.47-3.45-8,.16-16,0-23.95.11-2.39,0-3.29-.68-3.23-3.16.13-6.59.11-13.18,0-19.77,0-2.08.43-2.94,2.77-2.93q42.46.12,84.94,0c2.19,0,3.17.49,3.12,2.92-.14,6.68-.13,13.37,0,20,0,2.24-.78,2.88-2.92,2.86-8.07-.09-16.15.08-24.22-.1-2.89-.06-3.57.91-3.57,3.67q.12,58.91.06,117.8c0,4,0,4-3.94,4-7.51,0-15-.1-22.55,0-2.45.06-3.15-.64-3.14-3.12C354.21,316.05,354.16,296.18,354.17,276.32Z"/><path class="cls-3" d="M341.64,394.15c-.05,5.24-4.25,10.17-8.67,10.19-4.74,0-9-5-8.9-10.54.07-5.05,4.39-9.65,8.95-9.52S341.68,389,341.64,394.15Z"/><path class="cls-31" d="M359.19,388.37a5.76,5.76,0,0,1,0-1.1c.22-1.08-.73-2.69.93-3.09a4.15,4.15,0,0,1,4.07,1.24c1.43,1.51,1.58,4.65.16,6.12a4.21,4.21,0,0,1-4.28,1.37c-1.57-.48-.68-2.06-.88-3.15A8.05,8.05,0,0,1,359.19,388.37Z"/><path class="cls-32" d="M236.18,390.79c-.13-1-.31-2.37.92-2.56,1.38-.23,1.57,1.16,1.89,2.25.52,1.78,1.19,3.51,1.84,5.24.71,1.91.47,2.93-2,2.95-5.63.07-5.64.16-3.9-5.15.3-.95.35-2,1.2-2.73,1.19,1.53.22,3-.17,4.46-.16.59-.65,1.27.08,1.75a2.55,2.55,0,0,0,2.4.08,1.15,1.15,0,0,0,.54-1.65C238.33,393.74,238.65,391.39,236.18,390.79Z"/><path class="cls-33" d="M343,442.31c-.07,4-3.39,7.88-6.77,7.89s-6.93-4-6.86-8.08c.06-3.88,3.32-7.51,6.76-7.52S343.11,438.47,343,442.31Z"/><path class="cls-33" d="M510.8,442.3c0,4-3.39,7.89-6.77,7.89-3.54,0-6.94-3.95-6.92-8.05,0-3.69,3.43-7.48,6.79-7.53S510.84,438.41,510.8,442.3Z"/><path class="cls-34" d="M370.3,442c.06-4,3.27-7.48,6.8-7.44s6.83,3.82,6.76,7.84-3.49,7.87-6.86,7.81C373.41,450.18,370.23,446.27,370.3,442Z"/><path class="cls-35" d="M66.54,447.18c-.14-1.5-.55-3.11,1.89-3,2,.08,3.37.75,3.42,3s-1.41,3-3.34,3.15C65.84,450.57,66.5,448.65,66.54,447.18Z"/><path class="cls-36" d="M66.55,437.23c.25-1-.64-2.74,1.43-2.58,1.57.12,2,1.4,2,2.79s-.57,2.75-2.09,2.74C65.86,440.16,66.83,438.32,66.55,437.23Z"/><path class="cls-37" d="M478.56,438c.44-1.43-.79-3.6,1.78-3.45a3.17,3.17,0,0,1,3.19,3.48,3.08,3.08,0,0,1-3.26,3.37C477.51,441.37,479.29,439,478.56,438Z"/><path class="cls-38" d="M546.84,438.13c.7-1.27-1.06-3.68,1.86-3.53,2.09.1,3.06,1.45,3,3.56s-.89,3.19-2.94,3.28C545.83,441.57,547.55,439.2,546.84,438.13Z"/><path class="cls-39" d="M214.5,442.64c.74,0,1.48,0,2.22,0,1,0,1.47.63,1.47,1.63a1.45,1.45,0,0,1-1.5,1.63c-1.11,0-2.22,0-3.34,0s-2.28.16-2.36-1.55,1.13-1.82,2.39-1.78c.37,0,.75,0,1.12,0Z"/><path class="cls-40" d="M252.93,294c0-6,.07-12.06,0-18.09,0-2.05.67-2.8,2.73-2.76,6,.12,12,0,18,1.13,8.58,1.66,14.26,7.51,14.89,16.23a30.26,30.26,0,0,1-1.22,12.35c-2.09,6-6.61,9.27-12.4,10.84-6.6,1.8-13.42,1.34-20.19,1.36-1.82,0-1.79-1.13-1.78-2.42Q252.95,303.34,252.93,294Z"/><path class="cls-4" d="M259.19,211.79c6.4,0,12.19,1.53,16,7.14,4.65,6.9,3.61,21.25-1.62,26.74-2.88,3-6.55,4.1-10.44,4.58-2.56.31-5.18.14-7.78.24-1.58.06-2.42-.49-2.41-2.22q0-17.11,0-34.23c0-1.7.75-2.33,2.37-2.26C256.59,211.84,257.89,211.79,259.19,211.79Z"/><path class="cls-41" d="M236.18,390.79c.83-1.09,1.61-1.63,2.19.19.44,1.41.82,2.84,1.36,4.2.77,2,.46,2.86-1.92,2.81-3.52-.09-3.52,0-2.38-3.18a8,8,0,0,0,.75-4Z"/></g></g></svg>