<svg xmlns="http://www.w3.org/2000/svg" viewBox="0 0 612 612"><defs><style>.cls-1{fill:#fff;}.cls-2{fill:#e64011;}</style></defs><g id="Layer_2" data-name="Layer 2"><g id="Layer_1-2" data-name="Layer 1"><rect class="cls-1" width="612" height="612" rx="12"/><polygon class="cls-2" points="153.46 307.76 174.12 290.52 229.51 361.77 230.93 363.31 262.04 363.31 256.11 356.89 192.15 276.76 254.32 221.33 262.37 214.53 231.28 214.53 229.87 215.7 153.46 283.2 153.46 214.53 128.32 214.53 128.32 363.31 153.46 363.31 153.46 307.76"/><path class="cls-2" d="M237.76,455c0,31.06-11.92,45.74-42.45,45.74S152.78,486,152.78,455v-82.2H128.32v89.7c0,37.39,23.76,60.55,67,60.55s66.93-23.16,66.93-60.55v-70.6h44.65V523h24.9V391.85h42.83V523h24.86V391.85h35.46v-19.1H237.76Z"/><polygon class="cls-2" points="402.43 217.14 353.92 332.06 304.62 217.1 303.47 214.53 271.85 214.53 271.85 363.31 296.71 363.31 296.71 257.68 341.82 360.7 342.95 363.31 364.09 363.31 365.23 360.7 410.09 257.78 410.09 363.31 434.98 363.31 434.98 214.53 403.58 214.53 402.43 217.14"/><path class="cls-2" d="M414.61,60.29A10.24,10.24,0,1,1,404.38,50a10.27,10.27,0,0,1,10.23,10.29"/><path class="cls-2" d="M414.61,91.13a10.24,10.24,0,1,1-10.23-10.28,10.27,10.27,0,0,1,10.23,10.28"/><path class="cls-2" d="M414.61,152.83a10.24,10.24,0,1,1-10.23-10.28,10.27,10.27,0,0,1,10.23,10.28"/><path class="cls-2" d="M414.61,183.68a10.24,10.24,0,1,1-10.23-10.29,10.26,10.26,0,0,1,10.23,10.29"/><path class="cls-2" d="M414.7,122a10.28,10.28,0,1,1-10.29-10.28A10.29,10.29,0,0,1,414.7,122"/><path class="cls-2" d="M384,122a10.28,10.28,0,1,1-10.29-10.28A10.29,10.29,0,0,1,384,122"/><path class="cls-2" d="M353.34,122a10.28,10.28,0,1,1-10.28-10.28A10.28,10.28,0,0,1,353.34,122"/><path class="cls-2" d="M476.05,122a10.28,10.28,0,1,1-10.27-10.28A10.27,10.27,0,0,1,476.05,122"/><path class="cls-2" d="M476.05,152.83a10.28,10.28,0,1,1-10.27-10.28,10.28,10.28,0,0,1,10.27,10.28"/><path class="cls-2" d="M445.36,122a10.28,10.28,0,1,1-10.27-10.28A10.27,10.27,0,0,1,445.36,122"/><path class="cls-2" d="M506.72,183.68a10.28,10.28,0,1,1-10.27-10.29,10.27,10.27,0,0,1,10.27,10.29"/><path class="cls-2" d="M476.05,183.68a10.28,10.28,0,1,1-10.27-10.29,10.27,10.27,0,0,1,10.27,10.29"/><path class="cls-2" d="M445.36,183.68a10.28,10.28,0,1,1-10.27-10.29,10.27,10.27,0,0,1,10.27,10.29"/><path class="cls-2" d="M537.4,183.68a10.28,10.28,0,1,1-10.28-10.29,10.28,10.28,0,0,1,10.28,10.29"/><path class="cls-2" d="M476.05,214.52a10.28,10.28,0,1,1-10.27-10.28,10.27,10.27,0,0,1,10.27,10.28"/><path class="cls-2" d="M476.05,245.38a10.28,10.28,0,1,1-10.27-10.29,10.27,10.27,0,0,1,10.27,10.29"/></g></g></svg>