<svg width="100" height="100" xmlns="http://www.w3.org/2000/svg" data-name="Layer 1">
 <g>
  <title>Layer 1</title>
  <path stroke="null" id="svg_24" fill="#ffffff" d="m58.48,20.4042l0,36.29488c0,4.05603 2.81057,6.32653 5.77544,6.32653c2.75546,0 5.77544,-1.92882 5.77544,-6.32653l0,-36.03036a5.77544,5.77544 0 0 0 -5.77544,-6.03996a5.86361,5.86361 0 0 0 -5.77544,5.77544z" class="cls-3"/>
  <path id="svg_11" d="m-3.07692,-2.30769l104.10256,0l0,106.41026l-104.10256,0l0,-106.41026z" opacity="undefined" fill="#eaeaea"/>
  <path id="svg_1" fill="#757575" d="m51.73641,77.84462l1.53,4l-3,0l1.43,-4l0.04,0zm-0.57,-1.33l-3.35,8.79l1.25,0l0.86,-2.39l3.72,0l0.86,2.39l1.24,0l-3.34,-8.79l-1.24,0zm18.09,8.79l1.14,0l0,-8.79l-1.14,0l0,8.79zm-11.79,-5.16a2.44,2.44 0 0 1 1.92,-1.05c1.52,0 2.29,1.05 2.29,2.58l0,3.71l-1.15,0l0,-3.52c0,-1.24 -0.67,-1.72 -1.53,-1.72a1.78,1.78 0 0 0 -1.62,1.81l0,3.35l-1.12,0l0,-6.11l1.15,0l0.09,1l-0.03,-0.05zm5.17,3.34c0,-1.33 1.24,-2.1 2.67,-2.1a2.64,2.64 0 0 1 1.63,0.38l0,-0.19a1.43,1.43 0 0 0 -1.53,-1.43a1.38,1.38 0 0 0 -1.43,0.86l-1.06,-0.48a2.75,2.75 0 0 1 5.16,1.15l0,3.63l-1,0l0,-0.86l-0.09,0a2.31,2.31 0 0 1 -2,1a2.09,2.09 0 0 1 -2.29,-2m4.3,-0.76a2.43,2.43 0 0 0 -1.5,-0.3c-1.14,0 -1.62,0.67 -1.62,1.14c0,0.67 0.67,1 1.24,1a1.87,1.87 0 0 0 1.82,-1.72" class="cls-1"/>
  <path id="svg_2" fill-rule="evenodd" fill="#757575" d="m71.74,87.97462l1.33,-3.15l-2.38,-5.55l1.14,0l1.82,4.21l1.81,-4.21l1.15,0l-3.72,8.7l-1.15,0zm16.82,-6.69a1.83,1.83 0 0 0 -1.63,-1.24a2.12,2.12 0 0 0 0,4.2a1.86,1.86 0 0 0 1.63,-1.14l1,0.57a2.81,2.81 0 0 1 -2.63,1.71a3.11,3.11 0 0 1 -3,-3.25a3,3 0 0 1 3,-3.25a2.81,2.81 0 0 1 2.58,1.72l-1,0.67l0.05,0.01z" class="cls-2"/>
  <path id="svg_3" fill="#757575" d="m92.66,85.49462c1.53,0 2.3,-0.86 2.3,-1.91c0,-2.29 -3.35,-1.43 -3.35,-2.78c0,-0.47 0.39,-0.76 1.06,-0.76a1.94,1.94 0 0 1 1.62,0.76l0.67,-0.66a3.53,3.53 0 0 0 -2.39,-1.15a2,2 0 0 0 -2.2,1.91c0,2.2 3.44,1.43 3.44,2.58c0,0.57 -0.38,1 -1.14,1a1.88,1.88 0 0 1 -1.53,-1l-0.86,0.67a3.75,3.75 0 0 0 2.39,1.33l-0.01,0.01zm-10.89,-0.19l1.15,0l0,-6.11l-1.15,0l0,6.11z" class="cls-1"/>
  <path id="svg_4" fill-rule="evenodd" fill="#757575" d="m82.25,76.22462a0.77,0.77 0 0 1 0,1.53a0.77,0.77 0 0 1 0,-1.53zm-1.62,8.16l0.19,0.86l-1.15,0c-1,0 -1.53,-0.76 -1.53,-1.91l0,-2.95l-1.14,0l0,-1.2l1.15,0l0,-1.8l1.15,0l0,1.8l1.33,0l0,1.2l-1.34,0l0,3.1c0,0.86 0.67,0.86 1.33,0.86l0.01,0.04z" class="cls-2"/>
  <path id="svg_5" fill="#757575" d="m10.2,80.04462l0,1.44l3.35,0a2.9,2.9 0 0 1 -0.77,1.72a3.44,3.44 0 0 1 -2.58,1.05a3.66,3.66 0 0 1 -3.63,-3.73a3.65,3.65 0 0 1 6.12,-2.76l1,-1a5,5 0 0 0 -3.49,-1.38a5.07,5.07 0 1 0 0,10.13a4.58,4.58 0 0 0 4.8,-4.69a2.5,2.5 0 0 0 -0.09,-0.86l-4.71,0l0,0.08zm8.51,-1.14a3.25,3.25 0 1 0 0,6.49a3.22,3.22 0 0 0 3.29,-3.19l0,-0.06a3.16,3.16 0 0 0 -3.29,-3.24zm0,5.25a2,2 0 0 1 0,-4a2,2 0 0 1 0,4zm15.67,-4.59a2.51,2.51 0 0 0 -1.82,-0.76a3.26,3.26 0 0 0 0,6.5a2.22,2.22 0 0 0 1.72,-0.77l0.1,0l0,0.48c0,1.24 -0.67,1.91 -1.72,1.91a1.84,1.84 0 0 1 -1.66,-1.14l-1.24,0.47a3.14,3.14 0 0 0 2.87,1.91c1.72,0 3.15,-1 3.15,-3.44l0,-5.92l-1.3,0l0,0.77l-0.1,-0.01zm-1.63,4.59a2,2 0 1 1 1.72,-2a1.86,1.86 0 0 1 -1.72,2zm-7,-5.25a3.25,3.25 0 1 0 0,6.49a3.22,3.22 0 0 0 3.25,-3.19l0,-0.06a3.11,3.11 0 0 0 -3.22,-3.24l-0.03,0zm0,5.25a2,2 0 0 1 0,-4a2,2 0 0 1 0,4zm11.08,-8.69l1.43,0l0,9.92l-1.4,0l-0.03,-9.92zm5.35,8.69a1.85,1.85 0 0 1 -1.62,-1l4.44,-1.77l-0.19,-0.38a3,3 0 0 0 -5.81,1.15a3.21,3.21 0 0 0 3.15,3.23l0.06,0a3.46,3.46 0 0 0 2.79,-1.42l-1.14,-0.76a1.86,1.86 0 0 1 -1.63,1l-0.05,-0.05zm-0.09,-4a1.29,1.29 0 0 1 1.24,0.76l-3,1.25a1.79,1.79 0 0 1 1.79,-2.02l-0.03,0.01z" class="cls-1"/>
  <path id="svg_6" fill="#f6aa1b" d="m58.48,24.35561l0,32.93c0,3.68 2.55,5.74 5.24,5.74c2.5,0 5.24,-1.75 5.24,-5.74l0,-32.69a5.24,5.24 0 0 0 -5.24,-5.48a5.32,5.32 0 0 0 -5.24,5.24z" class="cls-3"/>
  <path id="svg_7" fill="#e27625" d="m44.76,40.70846l0,16.22c0,3.68 2.55,5.74 5.24,5.74c2.49,0 5.24,-1.75 5.24,-5.74l0,-16a5.25,5.25 0 0 0 -5.24,-5.46a5.33,5.33 0 0 0 -5.24,5.24z" class="cls-4"/>
  <circle id="svg_8" fill="#e27625" r="5.24" cy="57.42846" cx="36.28" class="cls-4"/>
  <path id="svg_22" fill="#f6aa1b" d="m58.48,24.35561l0,32.93c0,3.68 2.55,5.74 5.24,5.74c2.5,0 5.24,-1.75 5.24,-5.74l0,-32.69a5.24,5.24 0 0 0 -5.24,-5.48a5.32,5.32 0 0 0 -5.24,5.24z" class="cls-3"/>
  <path id="svg_23" fill="#f6aa1b" d="m58.48,24.35561l0,32.93c0,3.68 2.55,5.74 5.24,5.74c2.5,0 5.24,-1.75 5.24,-5.74l0,-32.69a5.24,5.24 0 0 0 -5.24,-5.48a5.32,5.32 0 0 0 -5.24,5.24z" class="cls-3"/>
 </g>

</svg>